<svg width="109" height="113" viewBox="0 0 109 113" fill="none" xmlns="http://www.w3.org/2000/svg">
<path d="M7.67045 91V21.1818H33.2386C38.1932 21.1818 42.2955 22 45.5455 23.6364C48.7955 25.25 51.2273 27.4432 52.8409 30.2159C54.4545 32.9659 55.2614 36.0682 55.2614 39.5227C55.2614 42.4318 54.7273 44.8864 53.6591 46.8864C52.5909 48.8636 51.1591 50.4545 49.3636 51.6591C47.5909 52.8409 45.6364 53.7045 43.5 54.25V54.9318C45.8182 55.0455 48.0795 55.7955 50.2841 57.1818C52.5114 58.5455 54.3523 60.4886 55.8068 63.0114C57.2614 65.5341 57.9886 68.6023 57.9886 72.2159C57.9886 75.7841 57.1477 78.9886 55.4659 81.8295C53.8068 84.6477 51.2386 86.8864 47.7614 88.5455C44.2841 90.1818 39.8409 91 34.4318 91H7.67045ZM18.2045 81.9659H33.4091C38.4545 81.9659 42.0682 80.9886 44.25 79.0341C46.4318 77.0795 47.5227 74.6364 47.5227 71.7045C47.5227 69.5 46.9659 67.4773 45.8523 65.6364C44.7386 63.7955 43.1477 62.3295 41.0795 61.2386C39.0341 60.1477 36.6023 59.6023 33.7841 59.6023H18.2045V81.9659ZM18.2045 51.3864H32.3182C34.6818 51.3864 36.8068 50.9318 38.6932 50.0227C40.6023 49.1136 42.1136 47.8409 43.2273 46.2045C44.3636 44.5455 44.9318 42.5909 44.9318 40.3409C44.9318 37.4545 43.9205 35.0341 41.8977 33.0795C39.875 31.125 36.7727 30.1477 32.5909 30.1477H18.2045V51.3864Z" fill="#0065FC"/>
<path d="M90.4904 65.9999C90.4904 68.209 88.6489 69.9999 86.3773 69.9999C84.1057 69.9999 82.2641 68.209 82.2641 65.9999C82.2641 63.7908 84.1057 62 86.3773 62C88.6489 62 90.4904 63.7908 90.4904 65.9999Z" fill="#0065FC"/>
<path d="M82.2643 78.8885L84.2499 64.6665H88.7886L90.4906 78.8885H82.2643Z" fill="#0065FC"/>
<path d="M106 70C106 80.415 97.2941 89 86.3774 89C75.4606 89 66.7547 80.415 66.7547 70C66.7547 59.585 75.4606 51 86.3774 51C97.2941 51 106 59.585 106 70Z" stroke="#0065FC" stroke-width="6"/>
</svg>
