<svg width="60" height="76" viewBox="0 0 60 76" fill="none" xmlns="http://www.w3.org/2000/svg">
<path d="M18.62 9.384C21.4573 9.43467 23.94 10.0933 26.068 11.36C28.196 12.6267 29.8173 14.324 30.932 16.452C32.0973 18.58 32.68 20.9867 32.68 23.672C32.68 25.648 32.3 27.5227 31.54 29.296C30.8307 31.0187 29.8427 32.564 28.576 33.932C30.4 35.3 31.8187 36.9973 32.832 39.024C33.896 41.0507 34.428 43.28 34.428 45.712C34.428 48.296 33.7947 50.6773 32.528 52.856C31.2613 55.0347 29.564 56.7827 27.436 58.1C25.308 59.3667 22.952 60 20.368 60H3.8V9.384H18.62ZM10.488 16.224V31.272H18.62C20.6973 31.272 22.4453 30.5373 23.864 29.068C25.2827 27.5987 25.992 25.8 25.992 23.672C25.992 21.544 25.2827 19.7707 23.864 18.352C22.496 16.9333 20.748 16.224 18.62 16.224H10.488ZM10.488 38.112V53.16H20.368C22.4453 53.16 24.1933 52.4507 25.612 51.032C27.0307 49.5627 27.74 47.7893 27.74 45.712C27.74 43.584 27.0307 41.7853 25.612 40.316C24.1933 38.8467 22.4453 38.112 20.368 38.112H10.488Z" fill="#0065FC"/>
<path d="M57.1875 42.875V41H47.8125V42.875H45V59.75H50.625V57.875H54.375V59.75H60V42.875H57.1875V42.875ZM51.5625 55.0625H49.6875V53.1875H51.5625V55.0625V55.0625ZM51.5625 51.3125H49.6875V49.4375H51.5625V51.3125V51.3125ZM51.5625 47.5625H49.6875V45.6875H51.5625V47.5625V47.5625ZM55.3125 55.0625H53.4375V53.1875H55.3125V55.0625ZM55.3125 51.3125H53.4375V49.4375H55.3125V51.3125ZM55.3125 47.5625H53.4375V45.6875H55.3125V47.5625V47.5625Z" fill="#0065FC"/>
<path d="M52.0939 32.7918C53.5896 34.7767 57.193 35.5982 55.2082 37.0939C53.2234 38.5895 50.4018 38.193 48.9062 36.2082C47.4105 34.2233 47.807 31.4018 49.7919 29.9061C51.7767 28.4105 50.5982 30.807 52.0939 32.7918Z" fill="#FC0000"/>
</svg>
